# xmcd
#
# Track frame offsets:
#	150
#	22223
#	43658
#	59511
#	75991
#	93135
#	109605
#	122893
#	136645
#
# Disc length: 2041 seconds
# Revision: 0
# Processed by: cddbd v1.5.2PL0 Copyright (c) Steve Scherf et al.
# Submitted via: dBpowerAMP V12.0
#
DISCID=6c07f709
DTITLE=Garth Brooks - Triple Live [CD1]
DYEAR=2018
DGENRE=Country
TTITLE0=The Thunder Rolls (the extended concert version)
TTITLE1=That Summer
TTITLE2=Ask Me How I Know
TTITLE3=Fishin' In The Dark
TTITLE4=In Another's Eyes (the duet with Trisha Yearwood)
TTITLE5=Rodeo
TTITLE6=Mom
TTITLE7=Papa Loved Mama
TTITLE8=Guy Goin' Nowhere
EXTD=
EXTT0=
EXTT1=
EXTT2=
EXTT3=
EXTT4=
EXTT5=
EXTT6=
EXTT7=
EXTT8=
PLAYORDER=
